<svg width="36" height="36" viewBox="0 0 36 36" fill="none" xmlns="http://www.w3.org/2000/svg">
<path d="M8.25 3H25.5C26.4946 3 27.4484 3.39509 28.1516 4.09835C28.8549 4.80161 29.25 5.75544 29.25 6.75V16.9695C27.5407 16.4157 25.7117 16.345 23.9648 16.7651C22.2178 17.1853 20.621 18.08 19.3505 19.3505C18.08 20.621 17.1853 22.2178 16.7651 23.9648C16.345 25.7117 16.4157 27.5407 16.9695 29.25H6.75C6.75 29.6478 6.90804 30.0294 7.18934 30.3107C7.47064 30.592 7.85218 30.75 8.25 30.75H17.598C18.0275 31.573 18.5719 32.3306 19.215 33H8.25C7.25544 33 6.30161 32.6049 5.59835 31.9016C4.89509 31.1984 4.5 30.2446 4.5 29.25V6.75C4.5 5.75544 4.89509 4.80161 5.59835 4.09835C6.30161 3.39509 7.25544 3 8.25 3ZM10.5 7.5C10.1022 7.5 9.72064 7.65804 9.43934 7.93934C9.15804 8.22064 9 8.60218 9 9V10.5C9 10.8978 9.15804 11.2794 9.43934 11.5607C9.72064 11.842 10.1022 12 10.5 12H22.5C22.8978 12 23.2794 11.842 23.5607 11.5607C23.842 11.2794 24 10.8978 24 10.5V9C24 8.60218 23.842 8.22064 23.5607 7.93934C23.2794 7.65804 22.8978 7.5 22.5 7.5H10.5ZM34.5 26.25C34.5 24.062 33.6308 21.9635 32.0836 20.4164C30.5365 18.8692 28.438 18 26.25 18C24.062 18 21.9635 18.8692 20.4164 20.4164C18.8692 21.9635 18 24.062 18 26.25C18 28.438 18.8692 30.5365 20.4164 32.0836C21.9635 33.6308 24.062 34.5 26.25 34.5C28.438 34.5 30.5365 33.6308 32.0836 32.0836C33.6308 30.5365 34.5 28.438 34.5 26.25ZM25.371 22.6455L29.58 25.4055C29.7104 25.4892 29.8174 25.6047 29.8909 25.7412C29.9644 25.8776 30.0019 26.0305 30 26.1855C30.0002 26.3415 29.9631 26.4952 29.892 26.634C29.8249 26.7714 29.7223 26.8884 29.595 26.973L25.3845 29.8455C25.3112 29.8948 25.2315 29.9337 25.1475 29.961C24.9525 30.0233 24.7414 30.011 24.555 29.9265C24.4475 29.8762 24.3496 29.8077 24.2655 29.724C24.1843 29.6355 24.1184 29.5341 24.0705 29.424C24.0236 29.3113 23.9997 29.1905 24 29.0685V23.4315C23.9992 23.251 24.0508 23.0742 24.1485 22.9224C24.2462 22.7707 24.3859 22.6505 24.5505 22.5765C24.6813 22.5152 24.8258 22.4892 24.9697 22.501C25.1137 22.5129 25.252 22.5622 25.371 22.644V22.6455Z" fill="#FFC721"/>
</svg>
