<svg width="23" height="22" viewBox="0 0 23 22" fill="none" xmlns="http://www.w3.org/2000/svg">
<path d="M22.524 10.8198L12.0738 0.240933C11.9986 0.164557 11.9092 0.103965 11.8108 0.0626224C11.7125 0.0212801 11.607 0 11.5005 0C11.394 0 11.2885 0.0212801 11.1901 0.0626224C11.0917 0.103965 11.0023 0.164557 10.9271 0.240933L0.476967 10.8198C0.17252 11.1282 0 11.5471 0 11.984C0 12.8913 0.728135 13.629 1.62372 13.629H2.7248V21.1775C2.7248 21.6325 3.0876 22 3.53666 22H9.87676V16.2428H12.7183V22H19.4643C19.9134 22 20.2762 21.6325 20.2762 21.1775V13.629H21.3772C21.8085 13.629 22.2221 13.4568 22.5265 13.1458C23.1582 12.5032 23.1582 11.4623 22.524 10.8198Z" fill="#D4D8E2"/>
</svg>
