<svg width="48" height="48" viewBox="0 0 48 48" fill="none" xmlns="http://www.w3.org/2000/svg">
<path d="M34.5044 16.5332C33.4014 16.4709 32.5577 15.5263 32.6199 14.4232L33.2558 3.15991C33.3181 2.05689 32.4744 1.11224 31.3714 1.04997L18.9344 0.347854C17.8313 0.285584 16.8867 1.12928 16.8244 2.23229L16.1886 13.4956C16.1263 14.5986 15.1816 15.4423 14.0786 15.3801L2.8153 14.7442C1.71228 14.6819 0.767628 15.5256 0.705358 16.6286L0.00324063 29.0656C-0.059029 30.1687 0.784663 31.1133 1.88768 31.1756L13.151 31.8114C14.254 31.8737 15.0977 32.8184 15.0355 33.9214L14.3996 45.1847C14.3373 46.2877 15.181 47.2324 16.284 47.2946L28.721 47.9968C29.824 48.059 30.7687 47.2153 30.831 46.1123L31.4668 34.849C31.5291 33.746 32.4737 32.9023 33.5768 32.9646L44.8401 33.6004C45.9431 33.6627 46.8878 32.819 46.95 31.716L47.6522 19.279C47.7144 18.176 46.8707 17.2313 45.7677 17.169L34.5044 16.5332Z" fill="url(#paint0_linear_1_432)"/>
<path d="M34.5044 16.5332C33.4014 16.4709 32.5577 15.5263 32.6199 14.4232L33.2558 3.15991C33.3181 2.05689 32.4744 1.11224 31.3714 1.04997L18.9344 0.347854C17.8313 0.285584 16.8867 1.12928 16.8244 2.23229L16.1886 13.4956C16.1263 14.5986 15.1816 15.4423 14.0786 15.3801L2.8153 14.7442C1.71228 14.6819 0.767628 15.5256 0.705358 16.6286L0.00324063 29.0656C-0.059029 30.1687 0.784663 31.1133 1.88768 31.1756L13.151 31.8114C14.254 31.8737 15.0977 32.8184 15.0355 33.9214L14.3996 45.1847C14.3373 46.2877 15.181 47.2324 16.284 47.2946L28.721 47.9968C29.824 48.059 30.7687 47.2153 30.831 46.1123L31.4668 34.849C31.5291 33.746 32.4737 32.9023 33.5768 32.9646L44.8401 33.6004C45.9431 33.6627 46.8878 32.819 46.95 31.716L47.6522 19.279C47.7144 18.176 46.8707 17.2313 45.7677 17.169L34.5044 16.5332Z" fill="url(#paint1_linear_1_432)"/>
<path d="M28.9806 13.9577C28.9028 15.3364 29.9574 16.5173 31.3362 16.5951L41.0738 17.1448C41.901 17.1915 42.5338 17.9 42.4871 18.7273L41.785 31.1643C41.7383 31.9915 41.0298 32.6243 40.2025 32.5776L30.465 32.0279C29.0862 31.95 27.9054 33.0047 27.8275 34.3834L27.1917 45.6468C27.145 46.474 26.4365 47.1068 25.6092 47.0601L14.8154 46.4507C13.9881 46.404 13.3553 45.6955 13.402 44.8683L14.0379 33.605C14.1157 32.2262 13.0611 31.0454 11.6823 30.9675L1.94477 30.4178C1.11751 30.3711 0.484742 29.6626 0.531444 28.8354L1.23356 16.3984C1.28026 15.5711 1.98875 14.9383 2.81602 14.985L12.5536 15.5347C13.9323 15.6126 15.1132 14.558 15.191 13.1792L15.8269 1.91587C15.8736 1.0886 16.582 0.455835 17.4093 0.502537L28.2032 1.11189C29.0304 1.1586 29.6632 1.86708 29.6165 2.69435L28.9806 13.9577Z" fill="url(#paint2_linear_1_432)" stroke="url(#paint3_linear_1_432)"/>
<defs>
<linearGradient id="paint0_linear_1_432" x1="42.5232" y1="1.67954" x2="1.37648" y2="46.4531" gradientUnits="userSpaceOnUse">
<stop stop-color="#85D3FF"/>
<stop offset="1" stop-color="#2596D7"/>
</linearGradient>
<linearGradient id="paint1_linear_1_432" x1="25.1529" y1="0.698913" x2="22.5025" y2="47.6457" gradientUnits="userSpaceOnUse">
<stop stop-color="#56CCF2"/>
<stop offset="0.265625" stop-color="#E2EEF2"/>
<stop offset="0.390625" stop-color="#E2F8FF"/>
<stop offset="0.583333" stop-color="#6EBCE6"/>
<stop offset="1" stop-color="#2596D7"/>
</linearGradient>
<linearGradient id="paint2_linear_1_432" x1="15.508" y1="-0.10569" x2="41.068" y2="47.8999" gradientUnits="userSpaceOnUse">
<stop stop-color="white"/>
<stop offset="1" stop-color="white" stop-opacity="0"/>
</linearGradient>
<linearGradient id="paint3_linear_1_432" x1="42.4319" y1="-2.70667" x2="-6.52936" y2="37.3507" gradientUnits="userSpaceOnUse">
<stop stop-color="white"/>
<stop offset="0.704204" stop-color="white" stop-opacity="0"/>
</linearGradient>
</defs>
</svg>
