<svg width="319" height="158" viewBox="0 0 319 158" fill="none" xmlns="http://www.w3.org/2000/svg">
<path d="M57.6108 129.007C41.0935 150.024 12.3214 140.527 1.66501 133.373C1.66501 138.332 8.58389 149.565 13.6534 152.392C42.977 168.745 58.3259 142.825 57.6108 129.007Z" fill="#A3573A" stroke="#C05F3B" stroke-width="0.147997"/>
<path d="M90.3939 84.4578C79.4415 102.81 50.5066 104.734 38.5922 90.452C38.5922 95.4102 42.921 104.719 47.9905 107.547C77.3141 123.9 91.1089 98.2755 90.3939 84.4578Z" fill="#A3573A" stroke="#C05F3B" stroke-width="0.147997"/>
<path d="M84.9178 70.3974C111.63 86.7857 130.947 60.4071 122.585 42.4245C119.96 49.9729 119.856 57.777 116.739 61.5171C103.718 77.142 84.8955 61.1705 77.0735 47.9747C77.0735 52.9435 80.2998 67.5641 84.9178 70.3974Z" fill="#A3573A" stroke="#C05F3B" stroke-width="0.147997"/>
<path d="M318.903 30.58C308.395 63.1411 282.05 53.0029 273.022 42.3464C273.022 47.3152 274.99 50.6135 279.608 53.4468C306.32 69.8351 319.554 44.4274 318.903 30.58Z" fill="#A3573A" stroke="#C05F3B" stroke-width="0.147997"/>
<path d="M1.48006 133.587C3.49043 133.587 5.44786 133.548 7.43394 133.265C8.21158 133.154 9.05257 132.729 9.85379 132.568C11.1039 132.318 12.3212 131.791 13.5793 131.585C15.8634 131.21 17.9005 130.634 19.9684 129.6C22.0129 128.578 23.8362 127.147 25.7656 125.909C26.6145 125.365 27.7229 125.222 28.464 124.534C29.1536 123.894 30.0217 123.541 30.7794 122.993C31.5631 122.427 32.3217 121.913 33.1296 121.374C33.6074 121.056 34.0462 120.634 34.3483 120.112C35.107 118.802 36.6827 117.814 37.8301 116.831C38.351 116.384 38.7137 116.314 38.9268 115.568C39.101 114.959 39.7957 114.475 39.8669 113.81C40.0397 112.198 40.8057 110.709 41.1204 109.136C41.3188 108.144 41.3817 106.911 41.7819 106.011C42.4716 104.459 42.6872 102.398 42.6872 100.684C42.6872 100.012 42.8624 99.0642 42.6785 98.4206C42.5501 97.9713 42.0864 97.2074 42.0604 96.7667C41.9742 95.3004 40.0236 94.2444 40.0236 92.693" stroke="#A2573A" stroke-width="2.95994" stroke-linecap="round"/>
<path d="M39.5215 91.9569C40.3157 92.2746 41.1047 92.7496 41.9325 92.9625C43.3348 93.323 44.7649 93.2938 46.2003 93.2938C48.1404 93.2938 50.2113 93.4435 52.0678 92.7568C54.195 91.97 56.2274 91.0645 58.2324 90.003C58.7706 89.7181 59.0853 89.1431 59.4493 88.6661C59.8084 88.1957 60.2515 87.8161 60.6491 87.3806C62.1833 85.7004 63.5866 83.8659 65.0255 82.1073C65.3794 81.6748 65.8407 81.412 66.2367 81.0332C66.7967 80.4975 67.359 79.937 68.0135 79.5135C68.7264 79.0522 69.4678 78.6102 70.1674 78.1309C70.802 77.6961 71.2058 76.9976 71.8128 76.5255C72.3746 76.0885 73.0863 75.4523 73.4525 74.8344C73.8158 74.2213 74.0674 73.5544 74.5094 72.989C75.2146 72.0871 75.3762 70.8748 75.9263 69.8924C76.2091 69.3874 76.2536 68.9118 76.3948 68.367C76.5411 67.8029 76.8829 67.2803 77.1375 66.7615C77.4378 66.1498 77.5061 65.4949 77.7317 64.859C77.95 64.2438 78.2142 63.6674 78.3945 63.0365C78.9832 60.9759 79.5257 59.0904 79.5257 56.9462C79.5257 56.1377 79.6113 55.355 79.32 54.6266" stroke="#A2573A" stroke-width="2.95994" stroke-linecap="round"/>
<path d="M77.9832 50.4102C78.3591 52.0265 79.6607 53.5275 80.8113 54.678C81.5722 55.439 82.6095 56.1196 83.7422 55.9578C84.581 55.838 85.3165 55.4717 86.1075 55.1979C86.7135 54.9882 87.3151 54.8045 87.9471 54.6495C89.1201 54.3618 90.3125 53.9947 91.495 53.7582C93.2162 53.414 94.6814 52.6033 96.3113 52.0328C97.1526 51.7384 97.9817 51.4085 98.8366 51.153C99.6664 50.9049 100.214 50.3541 100.922 49.8961C102.302 49.0031 103.781 48.1655 105.087 47.1765C106.578 46.0469 108.367 45.3307 109.783 44.0914C111.792 42.3333 112.791 39.8088 114.159 37.5783C114.459 37.0909 115.125 36.2673 115.205 35.7044C115.261 35.3102 115.419 34.7435 115.542 34.3446C115.631 34.056 115.565 33.7246 115.725 33.4648C115.854 33.2545 115.986 33.0111 116.039 32.7735C116.128 32.3729 116.342 32.017 116.342 31.5908" stroke="#A2573A" stroke-width="2.95994" stroke-linecap="round"/>
<path d="M115.353 31.2728C117.209 31.2728 119.067 31.3182 120.915 31.1192C123.318 30.8607 125.708 30.8701 127.843 29.6177C129.41 28.6989 130.816 27.5764 132.28 26.5121C133.685 25.4903 135.286 24.6915 136.631 23.5943C137.807 22.6343 138.487 21.2591 139.805 20.4034C141.046 19.597 142.287 19.0184 143.337 17.9463C145.16 16.0847 146.233 13.0974 146.826 10.6261C147.55 7.60886 148.371 4.55127 148.371 1.48006" stroke="#A2573A" stroke-width="2.95994" stroke-linecap="round"/>
<path d="M9.51431 133.658C11.4459 133.658 13.3267 133.62 15.235 133.336C15.9821 133.224 16.7902 132.798 17.56 132.637C18.7611 132.387 19.9308 131.858 21.1396 131.651C23.3342 131.276 25.2915 130.698 27.2784 129.662C29.2428 128.637 30.9947 127.203 32.8485 125.962C33.6641 125.416 34.7291 125.273 35.4412 124.583C36.1038 123.941 36.9379 123.587 37.6659 123.038C38.4189 122.471 39.1478 121.955 39.9241 121.415C40.3831 121.096 40.8047 120.673 41.0949 120.15C41.824 118.836 43.338 117.846 44.4404 116.86C44.9409 116.412 45.2894 116.342 45.4942 115.595C45.6615 114.983 46.329 114.498 46.3974 113.832C46.5634 112.215 47.2994 110.723 47.6018 109.146C47.7925 108.151 47.8528 106.916 48.2374 106.013C48.9001 104.457 49.1072 102.39 49.1072 100.672C49.1072 99.9985 49.2755 99.0485 49.0988 98.4032C48.9755 97.9528 48.5299 97.187 48.505 96.7452C48.4221 95.2751 46.548 94.2164 46.548 92.6611" stroke="#DC5D5D" stroke-width="2.95994" stroke-linecap="round"/>
<path d="M46.0715 91.9042C46.8322 92.2215 47.5881 92.6959 48.3811 92.9084C49.7243 93.2685 51.0943 93.2394 52.4694 93.2394C54.3279 93.2394 56.3117 93.3888 58.0902 92.703C60.1279 91.9173 62.0749 91.013 63.9956 89.9529C64.5111 89.6684 64.8126 89.0942 65.1613 88.6178C65.5052 88.148 65.9297 87.769 66.3106 87.3341C67.7803 85.656 69.1246 83.824 70.503 82.0678C70.842 81.6358 71.2839 81.3734 71.6632 80.9951C72.1997 80.4602 72.7384 79.9004 73.3653 79.4775C74.0483 79.0168 74.7585 78.5754 75.4287 78.0967C76.0366 77.6625 76.4234 76.9649 77.0049 76.4934C77.5431 76.057 78.2249 75.4217 78.5756 74.8046C78.9236 74.1924 79.1647 73.5264 79.5882 72.9617C80.2636 72.0609 80.4184 70.8504 80.9455 69.8692C81.2164 69.3649 81.2589 68.8899 81.3942 68.3458C81.5343 67.7825 81.8618 67.2606 82.1057 66.7426C82.3934 66.1317 82.4588 65.4776 82.6749 64.8426C82.884 64.2282 83.1371 63.6526 83.3098 63.0225C83.8738 60.9647 84.3935 59.0817 84.3935 56.9403C84.3935 56.133 84.4755 55.3513 84.1964 54.6239" stroke="#DC5D5D" stroke-width="2.95994" stroke-linecap="round"/>
<path d="M82.9247 50.3775C83.2858 51.9957 84.5363 53.4985 85.6417 54.6505C86.3728 55.4123 87.3693 56.0938 88.4576 55.9318C89.2635 55.8118 89.9702 55.4451 90.73 55.171C91.3122 54.961 91.8903 54.7771 92.4975 54.6219C93.6244 54.3338 94.77 53.9663 95.9062 53.7295C97.5598 53.3849 98.9675 52.5732 100.533 52.002C101.342 51.7072 102.138 51.377 102.96 51.1211C103.757 50.8727 104.283 50.3213 104.963 49.8627C106.289 48.9686 107.71 48.13 108.965 47.1398C110.397 46.0088 112.116 45.2917 113.476 44.0509C115.407 42.2907 116.366 39.7631 117.681 37.5299C117.968 37.0419 118.608 36.2173 118.686 35.6537C118.74 35.259 118.891 34.6916 119.009 34.2922C119.095 34.0033 119.031 33.6715 119.185 33.4113C119.309 33.2008 119.436 32.9571 119.487 32.7192C119.572 32.3181 119.778 31.9618 119.778 31.5351" stroke="#DC5D5D" stroke-width="2.95994" stroke-linecap="round"/>
<path d="M118.89 31.2347C120.671 31.2347 122.452 31.2799 124.226 31.0813C126.531 30.8232 128.823 30.8326 130.872 29.5822C132.374 28.6649 133.724 27.5443 135.127 26.4817C136.475 25.4615 138.012 24.664 139.301 23.5685C140.43 22.6102 141.082 21.2372 142.346 20.3828C143.537 19.5778 144.727 19.0001 145.734 17.9297C147.483 16.0711 148.513 13.0887 149.082 10.6213C149.776 7.60901 150.563 4.55637 150.563 1.49013" stroke="#DC5D5D" stroke-width="2.95994" stroke-linecap="round"/>
<path d="M14.6508 115.293C16.4159 113.71 18.2031 112.524 20.5436 111.992C21.156 111.853 21.7922 111.786 22.3711 111.526C22.8707 111.301 24.5139 110.918 24.9819 111.339C25.9746 112.233 22.1366 113.615 22.3711 113.615" stroke="#BE826C" stroke-width="2.95994" stroke-linecap="round"/>
<path d="M55.9377 73.6702C56.8542 70.8808 58.4065 69.0493 61.1592 68.1317C61.7793 67.925 64.2942 67.574 64.8142 68.0198C66.1744 69.1857 63.5817 72.0428 62.6511 72.6632" stroke="#BE826C" stroke-width="2.95994" stroke-linecap="round"/>
<path d="M96.5534 38.4253C96.1606 40.4874 95.3978 43.1246 98.2318 43.1246C99.0058 43.1246 102.206 43.5688 102.595 42.789" stroke="#BE826C" stroke-width="2.95994" stroke-linecap="round"/>
<path d="M283.022 26.2858C284.6 22.7037 286.315 20.9152 290.239 20.9152C291.794 20.9152 293.244 20.8339 294.77 20.5795" stroke="#BE826C" stroke-width="2.95994" stroke-linecap="round"/>
<path d="M312.771 28.5799C311.194 32.1621 309.479 33.9506 305.555 33.9506C304 33.9506 302.55 34.0319 301.023 34.2863" stroke="#BE826C" stroke-width="2.95994" stroke-linecap="round"/>
</svg>
