<svg width="54" height="54" viewBox="0 0 54 54" fill="none" xmlns="http://www.w3.org/2000/svg">
<path d="M50.1356 46.001C49.5254 43.724 50.0128 41.3241 51.0814 39.2228C52.9478 35.5529 54 31.3993 54 27C54 12.0883 41.9117 0 27 0C12.0883 0 0 12.0883 0 27C0 41.9117 12.0883 54 27 54C30.8784 54 34.5657 53.1823 37.8991 51.7099C39.8874 50.8316 42.102 50.4603 44.2016 51.0229L48.4305 52.156C50.0366 52.5863 51.5063 51.1166 51.0759 49.5105L50.1356 46.001Z" fill="url(#paint0_radial_1_421)"/>
<path d="M50.1356 46.001C49.5254 43.724 50.0128 41.3241 51.0814 39.2228C52.9478 35.5529 54 31.3993 54 27C54 12.0883 41.9117 0 27 0C12.0883 0 0 12.0883 0 27C0 41.9117 12.0883 54 27 54C30.8784 54 34.5657 53.1823 37.8991 51.7099C39.8874 50.8316 42.102 50.4603 44.2016 51.0229L48.4305 52.156C50.0366 52.5863 51.5063 51.1166 51.0759 49.5105L50.1356 46.001Z" fill="url(#paint1_radial_1_421)"/>
<defs>
<radialGradient id="paint0_radial_1_421" cx="0" cy="0" r="1" gradientUnits="userSpaceOnUse" gradientTransform="translate(14.85 9.45) rotate(54.3602) scale(52.8242)">
<stop stop-color="white"/>
<stop offset="1" stop-color="#D9D2D2"/>
</radialGradient>
<radialGradient id="paint1_radial_1_421" cx="0" cy="0" r="1" gradientUnits="userSpaceOnUse" gradientTransform="translate(21.33 18.09) rotate(67.0831) scale(36.0559)">
<stop offset="0.725147" stop-color="white" stop-opacity="0"/>
<stop offset="1" stop-color="white"/>
</radialGradient>
</defs>
</svg>
